<?xml version="1.0" encoding="UTF-8" standalone="no"?>
<!-- Generator: Adobe Illustrator 21.1.0, SVG Export Plug-In . SVG Version: 6.00 Build 0)  -->

<svg
   xmlns:dc="http://purl.org/dc/elements/1.1/"
   xmlns:cc="http://creativecommons.org/ns#"
   xmlns:rdf="http://www.w3.org/1999/02/22-rdf-syntax-ns#"
   xmlns:svg="http://www.w3.org/2000/svg"
   xmlns="http://www.w3.org/2000/svg"
   xmlns:sodipodi="http://sodipodi.sourceforge.net/DTD/sodipodi-0.dtd"
   xmlns:inkscape="http://www.inkscape.org/namespaces/inkscape"
   version="1.1"
   id="Слой_1"
   x="0px"
   y="0px"
   viewBox="0 0 86 71.3"
   style="enable-background:new 0 0 86 71.3;"
   xml:space="preserve"
   sodipodi:docname="heart--dark.svg"
   inkscape:version="0.92.3 (2405546, 2018-03-11)"><metadata
   id="metadata9"><rdf:RDF><cc:Work
       rdf:about=""><dc:format>image/svg+xml</dc:format><dc:type
         rdf:resource="http://purl.org/dc/dcmitype/StillImage" /><dc:title></dc:title></cc:Work></rdf:RDF></metadata><defs
   id="defs7" /><sodipodi:namedview
   pagecolor="#ffffff"
   bordercolor="#666666"
   borderopacity="1"
   objecttolerance="10"
   gridtolerance="10"
   guidetolerance="10"
   inkscape:pageopacity="0"
   inkscape:pageshadow="2"
   inkscape:window-width="716"
   inkscape:window-height="480"
   id="namedview5"
   showgrid="false"
   inkscape:zoom="3.3099578"
   inkscape:cx="43"
   inkscape:cy="35.650002"
   inkscape:window-x="0"
   inkscape:window-y="0"
   inkscape:window-maximized="0"
   inkscape:current-layer="Слой_1" />
<path
   d="M78.9,7.1c-8.4-7.7-21.9-7.7-30.3,0L43,12.3l-5.7-5.2C29-0.6,15.4-0.6,7.1,7.1c-9.4,8.6-9.4,22.6,0,31.3l35.9,33l35.9-33  C88.4,29.7,88.4,15.7,78.9,7.1z M73.6,33.2L43,61.7L12.4,33.2c-3.1-2.8-4.3-6.6-4.3-10.5c0-3.9,0.7-7.2,3.8-10  c2.7-2.5,6.4-3.9,10.3-3.9c3.9,0,7.6,2.4,10.3,4.9L43,22.8l10.5-9.1c2.7-2.5,6.4-4.9,10.3-4.9c3.9,0,7.6,1.4,10.3,3.9  c3.1,2.8,3.8,6.1,3.8,10C77.9,26.6,76.7,30.3,73.6,33.2z"
   id="path2"
   style="fill:#ffffff" />
</svg>